<svg xmlns="http://www.w3.org/2000/svg" viewBox="0 0 32 32" width="32" height="32">
  <rect width="32" height="32" fill="#040D14"/>
  <path d="M16 7C18.5 6.3 21 6.8 23 8.5C25.5 10.5 26.8 13.5 26.5 16.5C26.2 19.5 24.2 22.3 21.5 23.8C19 25.2 15.8 25.4 13 24.2C10.2 23 8 20.5 7.2 17.6C6.4 14.7 7.2 11.3 9.2 9.2C11 7.2 13.5 7.7 16 7Z" fill="#00A88F"/>
  <path d="M10.5 9C8.5 7 6.5 5 4 2.5" stroke="#00FFD4" stroke-width="1.5" fill="none" stroke-linecap="round"/>
  <path d="M22 8C24.5 5.5 27 3.5 29.5 2" stroke="#00FFD4" stroke-width="1.5" fill="none" stroke-linecap="round"/>
  <path d="M24 21.5C26.5 24.5 28 27 29.5 30" stroke="#00FFD4" stroke-width="1.5" fill="none" stroke-linecap="round"/>
  <path d="M8.5 22C6.5 24.5 4.5 27 2 30" stroke="#00FFD4" stroke-width="1.5" fill="none" stroke-linecap="round"/>
  <circle cx="13.5" cy="14.5" r="1.5" fill="#040D14" opacity="0.6"/>
  <circle cx="18.5" cy="18" r="1" fill="#040D14" opacity="0.6"/>
</svg>
