<svg xmlns="http://www.w3.org/2000/svg" viewBox="0 0 32 32" width="32" height="32">
  <rect width="32" height="32" fill="#040D14"/>
  <path d="M16 8C19 7 22.5 8.5 24.5 11C26.5 13 27 16 26 19C25 22 22.5 24.5 19.5 25.5C16.5 26.5 13 26 10.5 24C8 22 6.5 18.5 7 15.5C7.5 12 9.5 9 12.5 8C14 7.5 15 8.5 16 8Z" fill="#00A88F"/>
  <path d="M11 9.5 C9 7.5 7 5.5 4.5 3" stroke="#00FFD4" stroke-width="1.5" stroke-linecap="round" fill="none"/>
  <path d="M22 9 C24 6.5 26.5 4.5 29 2.5" stroke="#00FFD4" stroke-width="1.5" stroke-linecap="round" fill="none"/>
  <path d="M24.5 21 C26.5 23.5 28 26.5 29.5 29.5" stroke="#00FFD4" stroke-width="1.5" stroke-linecap="round" fill="none"/>
  <path d="M9 22 C7 24.5 5 27 2.5 30" stroke="#00FFD4" stroke-width="1.5" stroke-linecap="round" fill="none"/>
  <circle cx="14" cy="15" r="1.5" fill="#040D14" opacity="0.65"/>
  <circle cx="19" cy="18.5" r="1" fill="#040D14" opacity="0.65"/>
</svg>
